<svg width="32" height="32" viewBox="0 0 32 32" fill="none" xmlns="http://www.w3.org/2000/svg">
<path fill-rule="evenodd" clip-rule="evenodd" d="M8 8H19.6C20.1523 8 20.6 8.51167 20.6 9.14286C20.6 9.77404 20.1523 10.2857 19.6 10.2857H8C7.44772 10.2857 7 9.77404 7 9.14286C7 8.51167 7.44772 8 8 8ZM8 21.7143H17.2C17.7523 21.7143 18.2 22.226 18.2 22.8571C18.2 23.4883 17.7523 24 17.2 24H8C7.44772 24 7 23.4883 7 22.8571C7 22.226 7.44772 21.7143 8 21.7143ZM8 14.8571H24C24.5523 14.8571 25 15.3688 25 16C25 16.6312 24.5523 17.1429 24 17.1429H8C7.44772 17.1429 7 16.6312 7 16C7 15.3688 7.44772 14.8571 8 14.8571Z" fill="black"/>
<mask id="mask0" mask-type="alpha" maskUnits="userSpaceOnUse" x="7" y="8" width="18" height="16">
<path fill-rule="evenodd" clip-rule="evenodd" d="M8 8H19.6C20.1523 8 20.6 8.51167 20.6 9.14286C20.6 9.77404 20.1523 10.2857 19.6 10.2857H8C7.44772 10.2857 7 9.77404 7 9.14286C7 8.51167 7.44772 8 8 8ZM8 21.7143H17.2C17.7523 21.7143 18.2 22.226 18.2 22.8571C18.2 23.4883 17.7523 24 17.2 24H8C7.44772 24 7 23.4883 7 22.8571C7 22.226 7.44772 21.7143 8 21.7143ZM8 14.8571H24C24.5523 14.8571 25 15.3688 25 16C25 16.6312 24.5523 17.1429 24 17.1429H8C7.44772 17.1429 7 16.6312 7 16C7 15.3688 7.44772 14.8571 8 14.8571Z" fill="black"/>
</mask>
<g mask="url(#mask0)">
<path fill-rule="evenodd" clip-rule="evenodd" d="M0 0H32V32H0V0Z" fill="#182C4F"/>
</g>
</svg>
