<svg width="48" height="48" viewBox="0 0 48 48" fill="none" xmlns="http://www.w3.org/2000/svg">
<path opacity="0.9" fill-rule="evenodd" clip-rule="evenodd" d="M40.8123 13.472C41.5345 13.793 42 14.5092 42 15.2996V32.823C42 33.5494 41.6062 34.2186 40.9713 34.5714L24.9713 43.4602C24.3672 43.7958 23.6328 43.7958 23.0287 43.4602L7.02871 34.5714C6.39378 34.2186 6 33.5494 6 32.823L6 15.2996C6 14.5092 6.46547 13.793 7.18772 13.472L23.1877 6.36085C23.7049 6.13102 24.2951 6.13102 24.8123 6.36085L40.8123 13.472Z" fill="#FF8F00"/>
<path fill-rule="evenodd" clip-rule="evenodd" d="M29.9343 8.44922L15.2 16.6349V25.8118L19.2 27.8118V18.9886L34.5101 10.4829L29.9343 8.44922Z" fill="white"/>
</svg>
