<svg width="24" height="24" viewBox="0 0 24 24" fill="none" xmlns="http://www.w3.org/2000/svg">
<path d="M7 3.66699L4.5 7.00033V18.667C4.5 19.109 4.67559 19.5329 4.98816 19.8455C5.30072 20.1581 5.72464 20.3337 6.16667 20.3337H17.8333C18.2754 20.3337 18.6993 20.1581 19.0118 19.8455C19.3244 19.5329 19.5 19.109 19.5 18.667V7.00033L17 3.66699H7Z" stroke="black" stroke-width="1.8" stroke-linecap="round" stroke-linejoin="round"/>
<path d="M4.5 7H19.5" stroke="black" stroke-width="1.8" stroke-linecap="round" stroke-linejoin="round"/>
<path d="M15.3333 10.334C15.3333 11.218 14.9821 12.0659 14.357 12.691C13.7319 13.3161 12.884 13.6673 12 13.6673C11.1159 13.6673 10.2681 13.3161 9.64294 12.691C9.01782 12.0659 8.66663 11.218 8.66663 10.334" stroke="black" stroke-width="1.8" stroke-linecap="round" stroke-linejoin="round"/>
<mask id="mask0" mask-type="alpha" maskUnits="userSpaceOnUse" x="3" y="2" width="18" height="20">
<path d="M7 3.66699L4.5 7.00033V18.667C4.5 19.109 4.67559 19.5329 4.98816 19.8455C5.30072 20.1581 5.72464 20.3337 6.16667 20.3337H17.8333C18.2754 20.3337 18.6993 20.1581 19.0118 19.8455C19.3244 19.5329 19.5 19.109 19.5 18.667V7.00033L17 3.66699H7Z" stroke="black" stroke-width="1.8" stroke-linecap="round" stroke-linejoin="round"/>
<path d="M4.5 7H19.5" stroke="black" stroke-width="1.8" stroke-linecap="round" stroke-linejoin="round"/>
<path d="M15.3333 10.334C15.3333 11.218 14.9821 12.0659 14.357 12.691C13.7319 13.3161 12.884 13.6673 12 13.6673C11.1159 13.6673 10.2681 13.3161 9.64294 12.691C9.01782 12.0659 8.66663 11.218 8.66663 10.334" stroke="black" stroke-width="1.8" stroke-linecap="round" stroke-linejoin="round"/>
</mask>
<g mask="url(#mask0)">
<path fill-rule="evenodd" clip-rule="evenodd" d="M0 0H24V24H0V0Z" fill="#182C4F"/>
</g>
</svg>
